<?xml version="1.0" encoding="UTF-8"?>
<svg id="Layer_1" data-name="Layer 1" xmlns="http://www.w3.org/2000/svg" viewBox="0 0 837.68 1097.57">
  <defs>
    <style>
      .cls-1 {
        fill: #00356b;
      }

      .cls-2 {
        fill: #077c6d;
      }
    </style>
  </defs>
  <g>
    <g>
      <path class="cls-1" d="M173.74,736.43c0,6.69-1.09,12.73-3.28,18.12-2.19,5.39-5.29,9.97-9.32,13.72-4.03,3.76-8.91,6.65-14.64,8.7-5.73,2.05-12.15,3.07-19.25,3.07-11.33,0-21.43-1.81-30.3-5.43-8.88-3.62-16.18-7.75-21.91-12.39l17-17c4.5,4.1,9.55,7.24,15.15,9.42,3.41,1.37,6.62,2.25,9.62,2.66,3,.41,5.46.61,7.37.61,3.55,0,6.79-.44,9.73-1.33,2.93-.89,5.49-2.08,7.68-3.58,4.64-3.41,6.96-7.92,6.96-13.51,0-3.41-1.23-6.48-3.69-9.21-1.91-2.18-4.37-3.96-7.37-5.32-2.46-1.36-5.05-2.46-7.78-3.28-2.73-.82-5.19-1.57-7.37-2.25-.68-.27-1.3-.44-1.84-.51-.55-.07-1.02-.24-1.43-.51-.28,0-.68-.13-1.23-.41-2.87-.82-7-2.25-12.39-4.3-5.39-2.05-10.75-4.84-16.07-8.4-12.42-8.33-18.63-18.56-18.63-30.71,0-8.05,1.4-14.85,4.2-20.37,2.8-5.53,6.45-10.03,10.95-13.51,4.5-3.48,9.52-5.97,15.05-7.47,5.53-1.5,10.95-2.25,16.28-2.25,9.83,0,18.09,1.16,24.78,3.48,6.69,2.32,12.01,4.64,15.97,6.96,2.05,1.23,3.79,2.43,5.22,3.58,1.43,1.16,2.69,2.22,3.79,3.17l-17.4,17.61c-3.69-3.69-7.44-6.48-11.26-8.39-5.73-2.73-11.74-4.1-18.02-4.1-2.73,0-5.46.34-8.19,1.02-2.73.68-5.12,1.57-7.17,2.66-6.01,3.69-9.01,8.53-9.01,14.54,0,3.69,1.23,6.83,3.69,9.42,1.77,2.05,4.23,3.89,7.37,5.53,2.59,1.37,5.32,2.46,8.19,3.28,2.87.82,5.53,1.57,7.99,2.25l2.46.61c.68.28,1.98.68,3.89,1.23,1.91.55,4.16,1.37,6.76,2.46,2.59,1.09,5.43,2.39,8.5,3.89,3.07,1.5,6.11,3.28,9.11,5.32,13.24,8.74,19.86,19.04,19.86,30.92Z"/>
      <path class="cls-1" d="M258.51,630.98c10.24,0,19.89,1.95,28.97,5.84,9.08,3.89,16.99,9.21,23.75,15.97,6.76,6.76,12.08,14.68,15.97,23.75,3.89,9.08,5.84,18.74,5.84,28.97s-1.95,19.9-5.84,28.97c-3.89,9.08-9.21,16.99-15.97,23.75-6.76,6.76-14.68,12.08-23.75,15.97-9.08,3.89-18.74,5.84-28.97,5.84s-19.9-1.95-28.97-5.84c-9.08-3.89-17-9.21-23.75-15.97-6.76-6.76-12.08-14.67-15.97-23.75-3.89-9.08-5.84-18.74-5.84-28.97s1.95-19.89,5.84-28.97c3.89-9.08,9.21-17,15.97-23.75,6.76-6.76,14.67-12.08,23.75-15.97,9.08-3.89,18.73-5.84,28.97-5.84ZM258.51,655.55c-6.69,0-13.04,1.26-19.04,3.79-6.01,2.53-11.4,6.18-16.18,10.95-4.78,4.78-8.43,10.17-10.95,16.18-2.53,6.01-3.79,12.36-3.79,19.04s1.26,13.07,3.79,19.15c2.52,6.08,6.18,11.5,10.95,16.28,4.78,4.78,10.17,8.39,16.18,10.85,6,2.46,12.35,3.69,19.04,3.69s13.07-1.23,19.15-3.69c6.07-2.46,11.5-6.07,16.28-10.85,4.78-4.78,8.39-10.2,10.85-16.28,2.46-6.07,3.69-12.46,3.69-19.15s-1.23-13.03-3.69-19.04c-2.46-6-6.08-11.4-10.85-16.18-4.78-4.78-10.21-8.43-16.28-10.95-6.08-2.52-12.46-3.79-19.15-3.79Z"/>
      <path class="cls-1" d="M426.21,752.81v24.57h-80.88v-143.13h24.57v118.56h56.31Z"/>
      <path class="cls-1" d="M511.39,658.62h-41.98v118.76h-24.57v-118.76h-42.18v-24.57h108.73v24.57Z"/>
      <path class="cls-1" d="M547.23,658.62v34.81h53.44l6.14,24.57h-59.59v34.81h71.87v24.57h-96.44v-143.33h96.44v24.57h-71.87Z"/>
      <path class="cls-1" d="M712.47,705.71l54.47,71.67h-30.71l-39.11-51.4-39.11,51.4h-30.71l54.47-71.67-54.47-71.67h30.71l39.11,51.4,39.11-51.4h30.71l-54.47,71.67Z"/>
    </g>
    <g>
      <path class="cls-2" d="M140.97,913.47v21.33h-70.22v-124.27h21.33v102.94h48.89Z"/>
      <path class="cls-2" d="M282.13,934.81h-23.47l-9.6-21.33-9.6-21.33-25.24-55.82-25.25,55.82h32.36l9.6,21.33h-51.56l-9.6,21.33h-23.47l56.18-124.45h23.47l56.18,124.45Z"/>
      <path class="cls-2" d="M402.57,867.07c.18,1.78.27,3.56.27,5.33,0,8.89-1.69,17.28-5.07,25.16-3.38,7.88-8,14.76-13.87,20.62s-12.74,10.49-20.62,13.87c-7.88,3.38-16.27,5.07-25.16,5.07s-17.28-1.69-25.16-5.07c-7.88-3.38-14.76-8-20.62-13.87-5.87-5.87-10.49-12.74-13.87-20.62-3.38-7.88-5.07-16.27-5.07-25.16s1.69-17.27,5.07-25.16c3.38-7.88,8-14.76,13.87-20.62,5.87-5.87,12.74-10.49,20.62-13.87,7.88-3.38,16.27-5.07,25.16-5.07s17.42,1.69,25.24,5.07c7.82,3.38,14.64,8.03,20.45,13.96l-14.93,15.11c-4.15-4.15-8.86-7.32-14.13-9.51-5.28-2.19-10.82-3.29-16.62-3.29s-11.32,1.1-16.53,3.29c-5.22,2.19-9.9,5.36-14.05,9.51-4.15,4.15-7.32,8.83-9.51,14.04-2.19,5.22-3.29,10.73-3.29,16.53s1.09,11.35,3.29,16.62c2.19,5.28,5.36,9.99,9.51,14.13,4.15,4.15,8.83,7.29,14.05,9.42,5.21,2.13,10.72,3.2,16.53,3.2s11.35-1.07,16.62-3.2c5.27-2.13,9.98-5.27,14.13-9.42,5.57-5.81,9.36-12.5,11.38-20.09h-57.6l5.33-21.33h73.96c.24,1.78.44,3.56.62,5.33Z"/>
      <path class="cls-2" d="M517.15,810.36v74.67c0,7.23-1.36,14.02-4.09,20.36-2.73,6.34-6.46,11.88-11.2,16.62-4.74,4.74-10.28,8.48-16.62,11.2-6.34,2.73-13.13,4.09-20.36,4.09s-14.02-1.36-20.36-4.09c-6.34-2.73-11.88-6.46-16.62-11.2-4.74-4.74-8.48-10.28-11.2-16.62-2.73-6.34-4.09-13.13-4.09-20.36v-74.67h21.33v74.67c0,4.15.77,8.09,2.31,11.82,1.54,3.73,3.79,7.08,6.76,10.04,2.96,2.96,6.31,5.22,10.05,6.76,3.73,1.54,7.67,2.31,11.82,2.31,8.53,0,15.82-3.02,21.87-9.07,2.96-2.96,5.21-6.31,6.76-10.04,1.54-3.73,2.31-7.67,2.31-11.82v-74.67h21.33Z"/>
      <path class="cls-2" d="M623.11,810.18v124.45h-23.11l-49.96-85.16v85.16h-21.33v-124.45h23.11l49.96,85.16v-85.16h21.33Z"/>
      <path class="cls-2" d="M766.94,934.81h-23.47l-9.6-21.33-9.6-21.33-25.24-55.82-25.25,55.82h32.36l9.6,21.33h-51.56l-9.6,21.33h-23.47l56.18-124.45h23.47l56.18,124.45Z"/>
    </g>
    <g>
      <path class="cls-2" d="M718.08,464.95c-7.06-25.63-23.61-88.31-22.18-107.4,1.81-24.2,10.48-50.93,10.48-50.93,0,0,8.31,7.22,16.62,4.7,8.31-2.53,8.67-8.67,8.67-23.12,0-6.52-.59-19.07-1.77-33.93,20.57-.65,37.05-17.52,37.05-38.25s-17.14-38.28-38.28-38.28c-3.54,0-6.97.49-10.23,1.39-8.62-23.51-26.24-39.23-55.44-39.73v-41.26c0-4.57-3.74-8.31-8.31-8.31h-26c-4.57,0-8.31,3.74-8.31,8.31v41.23h-94.45c.72-2.94,1.11-6.01,1.11-9.17v-19.86c0-21.32-17.45-38.77-38.77-38.77h-4.65c-21.32,0-38.77,17.45-38.77,38.77v19.86c0,3.16.39,6.23,1.11,9.17h-230.12c-29.62,0-57.79,13-57.79,44.07v149.9c0,29.26,28.9,26.37,28.9,26.37v41.18c0,15.17,6.5,28.17,16.62,28.17h71.52s4.33-22.4,11.56-38.29,13-34.68,13-34.68c15.17,0,32.51-4.33,36.12-26.01,1.3-7.82,1.67-22.03,1.6-37.01h104.81c44.86,0,76.26,22.43,62.8,84.33-9.1,41.86-9.58,69.75-8.94,83.44h-226.68v-10.32c0-4.57-3.74-8.31-8.31-8.31h-7.79c-4.57,0-8.31,3.74-8.31,8.31v10.32h-17.48v-10.32c0-4.57-3.74-8.31-8.31-8.31h-7.79c-4.57,0-8.31,3.74-8.31,8.31v10.32h-53.36c-52.93,0-78.95,31.4-78.95,76.26v39.65c0,.14,0,.19,0,.18v27.05h35.89v-27.24h26.91v27.24h35.89v-27.24h498.82v27.24h35.89v-27.24h26.91v27.24h35.89v-27.05s0-.05,0-.18v-39.65c0-35.33-16.15-62.29-48.86-72.16ZM479.52,110.47c0-3.53,2.89-6.43,6.43-6.43s6.43,2.89,6.43,6.43v28.91h-12.85v-28.91ZM534.57,425.87c2.69-23.33,18.84-80.74,5.38-112.14-13.46-31.4-37.68-58.31-84.33-58.31h-119.11c-.38-10.55-.75-17.78-.75-17.78-.3-6.5-1.44-23.84-14.81-27.81-13.37-3.97-25.29,4.33-24.2,20.23,1.08,15.89-.36,47.32-7.95,62.85-7.59,15.53-8.67,30.34-8.67,30.34h-81.27v-123.54c0-17.7,6.86-24.2,19.14-24.2h432.01c23.12,0,32.51,16.62,36.12,41.54,3.61,24.92,4.7,62.13,4.7,62.13-22.03,21.31-30.7,41.54-31.06,74.41-.29,25.98,11.16,84.07,15.97,107.28h-37.12c11.98-22.13,16.22-48.79,9.5-70.64-.19-.64-.39-1.28-.61-1.9,0,0,0,0,0,0h0c-4.65-13.12-17.16-22.51-31.87-22.51-18.68,0-33.82,15.14-33.82,33.82,0,17.61,13.46,32.07,30.65,33.67-.64,10.88-3.12,20.71-5.32,27.57h-73.41c-.49-8.47-.74-21.42.82-34.99ZM110.9,536.61c.15-25.28,11.42-35.6,38.79-35.6h538.29c27.37,0,38.64,10.32,38.79,35.6H110.9Z"/>
      <path class="cls-2" d="M230.56,211.59c-7.75,0-14.03,6.28-14.03,14.03s6.28,14.03,14.03,14.03,14.03-6.28,14.03-14.03-6.28-14.03-14.03-14.03Z"/>
      <path class="cls-2" d="M268.41,211.59c-7.75,0-14.03,6.28-14.03,14.03s6.28,14.03,14.03,14.03,14.03-6.28,14.03-14.03-6.28-14.03-14.03-14.03Z"/>
      <path class="cls-2" d="M666.57,273.35c0-33.5-27.16-60.66-60.66-60.66s-60.66,27.16-60.66,60.66,27.16,60.66,60.66,60.66,60.66-27.16,60.66-60.66ZM581.97,273.35c0-13.22,10.72-23.94,23.94-23.94s23.94,10.72,23.94,23.94-10.72,23.94-23.94,23.94-23.94-10.72-23.94-23.94Z"/>
    </g>
  </g>
  <g>
    <path class="cls-1" d="M561.36,1024.12c-6.85,0-11.31,5.92-11.31,15.64s4.46,16.04,11.31,16.04,11.24-6.25,11.24-16.04-4.46-15.64-11.24-15.64Z"/>
    <path class="cls-1" d="M183.17,1024.39h-6.26v15.17h6.26c6.52,0,9.58-2.59,9.58-7.92s-3.26-7.25-9.58-7.25Z"/>
    <path class="cls-1" d="M225.22,1024.12c-6.85,0-11.31,5.92-11.31,15.64s4.46,16.04,11.31,16.04,11.24-6.25,11.24-16.04-4.46-15.64-11.24-15.64Z"/>
    <path class="cls-1" d="M735.09,1024.12c-6.85,0-11.31,5.92-11.31,15.64s4.46,16.04,11.31,16.04,11.24-6.25,11.24-16.04-4.46-15.64-11.24-15.64Z"/>
    <path class="cls-1" d="M100,1024.39h-6.12v14.17h6.12c5.99,0,9.18-2.53,9.18-7.45s-3.19-6.72-9.18-6.72Z"/>
    <path class="cls-1" d="M0,0v1097.57h837.68V0H0ZM76.71,1057.33c-2.99,2.79-8.12,5.19-14.04,5.19-11.58,0-20.36-7.98-20.36-22.42s9.05-22.69,20.76-22.69c6.05,0,10.25,2.73,12.97,5.52l-4.26,4.79c-2.2-2.13-4.59-3.59-8.65-3.59-7.72,0-12.91,5.99-12.91,15.77s4.66,15.9,13.37,15.9c2.39,0,4.79-.67,6.19-1.93v-9.38h-8.18v-6.32h15.1v19.16ZM109.85,1061.72l-9.38-17.03h-6.59v17.03h-7.72v-43.52h14.64c9.05,0,16.03,3.19,16.03,12.91,0,6.65-3.46,10.65-8.72,12.44l10.38,18.16h-8.65ZM158.55,1042.62c0,14.3-6.39,19.89-16.43,19.89s-16.57-5.59-16.57-19.89v-24.42h7.72v25.02c0,9.45,3.59,12.58,8.85,12.58s8.98-3.13,8.98-12.58v-25.02h7.45v24.42ZM183.84,1045.75h-6.92v15.97h-7.72v-43.52h14.64c9.51,0,16.5,3.33,16.5,13.44s-7.19,14.11-16.5,14.11ZM225.22,1062.52c-11.38,0-19.23-8.65-19.23-22.76s7.85-22.36,19.23-22.36,19.16,8.32,19.16,22.36-7.85,22.76-19.16,22.76ZM279.25,1062.52c-5.86,0-11.51-2.33-15.64-6.39l4.46-5.26c3.13,2.93,7.32,4.92,11.38,4.92,4.86,0,7.59-2.2,7.59-5.59,0-3.59-2.79-4.72-6.79-6.39l-5.92-2.59c-4.32-1.8-8.78-5.19-8.78-11.58,0-6.92,6.12-12.24,14.57-12.24,5.12,0,10.05,2.13,13.44,5.52l-3.99,4.92c-2.73-2.33-5.72-3.73-9.45-3.73-4.13,0-6.79,1.93-6.79,5.12,0,3.39,3.33,4.66,6.92,6.12l5.86,2.46c5.19,2.2,8.78,5.46,8.78,11.78,0,7.05-5.86,12.91-15.64,12.91ZM329.48,1061.72h-26.81v-43.52h26.15v6.52h-18.43v11.11h15.64v6.52h-15.64v12.84h19.1v6.52ZM376.26,1061.72h-9.58l-5.39-22.89c-.73-3.39-1.33-6.72-1.93-10.05h-.27c-.6,3.33-1.2,6.65-1.93,10.05l-5.26,22.89h-9.45l-8.65-43.52h7.98l3.73,21.96c.73,4.66,1.46,9.32,2.2,13.91h.27c.86-4.59,1.86-9.32,2.79-13.91l5.39-21.96h6.65l5.39,21.96c.93,4.52,1.93,9.25,2.86,13.91h.27c.73-4.66,1.4-9.32,2.13-13.91l3.73-21.96h7.45l-8.38,43.52ZM398.95,1061.72h-7.72v-43.52h7.72v43.52ZM442.33,1061.72h-7.92l-13.51-24.49-4.52-9.25h-.27c.4,4.59,1,9.85,1,14.71v19.03h-7.32v-43.52h7.92l13.51,24.49,4.52,9.25h.27c-.4-4.46-1-9.98-1-14.84v-18.9h7.32v43.52ZM485.31,1057.33c-2.99,2.79-8.12,5.19-14.04,5.19-11.58,0-20.36-7.98-20.36-22.42s9.05-22.69,20.76-22.69c6.05,0,10.25,2.73,12.97,5.52l-4.26,4.79c-2.2-2.13-4.59-3.59-8.65-3.59-7.72,0-12.91,5.99-12.91,15.77s4.66,15.9,13.37,15.9c2.39,0,4.79-.67,6.19-1.93v-9.38h-8.18v-6.32h15.1v19.16ZM521.04,1062.52c-5.86,0-11.51-2.33-15.64-6.39l4.46-5.26c3.13,2.93,7.32,4.92,11.38,4.92,4.86,0,7.59-2.2,7.59-5.59,0-3.59-2.79-4.72-6.79-6.39l-5.92-2.59c-4.32-1.8-8.78-5.19-8.78-11.58,0-6.92,6.12-12.24,14.57-12.24,5.12,0,10.05,2.13,13.44,5.52l-3.99,4.92c-2.73-2.33-5.72-3.73-9.45-3.73-4.13,0-6.79,1.93-6.79,5.12,0,3.39,3.33,4.66,6.92,6.12l5.86,2.46c5.19,2.2,8.78,5.46,8.78,11.78,0,7.05-5.86,12.91-15.64,12.91ZM561.36,1062.52c-11.38,0-19.23-8.65-19.23-22.76s7.85-22.36,19.23-22.36,19.16,8.32,19.16,22.36-7.85,22.76-19.16,22.76ZM614.86,1061.72h-25.75v-43.52h7.72v36.99h18.03v6.52ZM652.85,1042.62c0,14.3-6.39,19.89-16.43,19.89s-16.57-5.59-16.57-19.89v-24.42h7.72v25.02c0,9.45,3.59,12.58,8.85,12.58s8.98-3.13,8.98-12.58v-25.02h7.45v24.42ZM692.51,1024.72h-12.51v37h-7.72v-37h-12.58v-6.52h32.8v6.52ZM707.34,1061.72h-7.72v-43.52h7.72v43.52ZM735.09,1062.52c-11.38,0-19.23-8.65-19.23-22.76s7.85-22.36,19.23-22.36,19.16,8.32,19.16,22.36-7.85,22.76-19.16,22.76ZM795.37,1061.72h-7.92l-13.51-24.49-4.52-9.25h-.27c.4,4.59,1,9.85,1,14.71v19.03h-7.32v-43.52h7.92l13.51,24.49,4.52,9.25h.27c-.4-4.46-1-9.98-1-14.84v-18.9h7.32v43.52ZM811.16,982.35H26.53V26.53h784.63v955.82Z"/>
  </g>
</svg>