<?xml version="1.0" encoding="UTF-8"?>
<svg id="Capa_1" data-name="Capa 1" xmlns="http://www.w3.org/2000/svg" viewBox="0 0 794.87 135.61">
  <defs>
    <style>
      .cls-1 {
        fill: #fff;
      }
    </style>
  </defs>
  <g id="_555e1e5a-26d6-49d5-987f-18c2d0231cd1" data-name="555e1e5a-26d6-49d5-987f-18c2d0231cd1">
    <g id="_555e1e5a-26d6-49d5-987f-18c2d0231cd1-child-0" data-name="555e1e5a-26d6-49d5-987f-18c2d0231cd1-child-0">
      <path class="cls-1" d="M98.42,126.87c-11.32-3.19-18.76-13.28-18.61-25.22.1-6.99,2.51-12.37,7.77-17.35,9.16-8.64,22.44-9.66,32.38-2.48l3.42,2.47-3.03,3.1c-2.63,2.69-3.2,2.96-4.29,2.02-3.98-3.47-12.12-4.79-17.35-2.82-5.59,2.1-10.58,9.48-10.62,15.69-.08,16.55,21.59,23.13,30.91,9.39,1.43-2.1,2.59-4.15,2.59-4.53s-5.03-.71-11.17-.71-11.17-.2-11.17-.45.4-2.03.89-3.98l.89-3.53h29.34v3.84c0,5.52-1.92,11.1-5.4,15.66-5.71,7.48-17.55,11.45-26.56,8.91M149.53,127.22c-6.1-2-10.88-6.26-13.5-12.04-1.47-3.24-1.63-5.21-1.64-20.49l-.02-16.91h7.98v14.92c0,8.2.36,16.18.8,17.74.43,1.55,2.04,4.03,3.56,5.51,2.3,2.22,3.52,2.75,7.14,3.04,5.4.45,9.32-1.65,11.67-6.24,1.41-2.75,1.57-4.73,1.57-19.02v-15.95h7.98v17.13c0,18.31-.32,20.19-4.32,25.41-4.06,5.31-15.1,8.89-21.23,6.89M.28,102.41v-24.71l3.79.25,3.79.24.22,20.09.21,20.09h19.13v8.75H.28v-24.71M30.08,125.97c1.44-3.72,20.9-46.39,21.55-47.24.52-.68,2.27-.95,5.1-.8l4.31.24,10.73,23.72c5.9,13.04,10.73,24.05,10.73,24.47s-1.92.75-4.29.75h-4.28l-8.64-19.11c-4.75-10.51-8.9-18.83-9.23-18.5-.58.6-9.48,19.9-9.48,20.57,0,.18,2.89.33,6.42.33h6.41l1.57,3.64c.86,2.01,1.56,3.8,1.56,3.98s-4.46.33-9.92.33h-9.91l-2.01,4.38-2.01,4.38h-4.52c-3.58,0-4.43-.23-4.09-1.14M180.44,126.62c-.31-.31-.57-11.43-.57-24.71v-24.13l4.59.02,4.59.02,9.58,16.34,9.58,16.34.22-16.36.22-16.36h8.77l-.22,24.47-.21,24.47-4.4.23-4.39.24-9.58-16.31-9.57-16.31-.4,16.08-.4,16.07-3.62.24c-1.99.13-3.88-.02-4.19-.33M220.58,126.54c0-.32,4.91-11.42,10.9-24.67l10.9-24.09h9.04l10.93,24.08c6,13.24,10.92,24.36,10.92,24.71s-2,.52-4.46.39l-4.46-.24-8.51-18.88c-4.68-10.38-8.69-18.88-8.91-18.89-.34-.02-7.81,16.21-9.23,20.07-.46,1.25.12,1.39,5.79,1.39h6.31l1.76,3.6c.97,1.98,1.76,3.77,1.76,3.98s-4.51.37-10.03.37h-10.02l-1.94,4.38-1.94,4.38h-4.41c-2.42,0-4.4-.25-4.4-.57M17.44,65.73c-5.16-.6-9.83-2.29-13.43-4.85l-2.27-1.6,3.42-3.47c3.03-3.07,3.55-3.33,4.69-2.32,2.24,2.03,7.04,3.6,10.97,3.6,6.86,0,11.32-4.42,8.94-8.88-1.48-2.76-2.95-3.65-9.12-5.51C4.69,37.89-1.59,31.17.34,21,1.87,12.94,7.88,8.38,17.66,7.88c6.53-.33,12.2,1.11,17.25,4.39l3.1,2.02-3.67,3.66-3.68,3.66-1.82-1.7c-2.39-2.24-8.32-3.78-11.94-3.1-3.4.64-7.04,3.98-7.04,6.47,0,3.35,2.95,5.85,9.04,7.66,10.21,3.06,17.53,7.67,20.14,12.71,1.36,2.61,1.52,9.21.31,12.4-2.75,7.26-11.1,10.95-21.9,9.68M69.11,65.78c-5.87-.77-12.12-4.04-16.37-8.58-4.69-5-6.73-9.09-7.89-15.87-2.21-12.84,4.86-25.62,17.36-31.37,3.21-1.47,5.32-1.81,11.53-1.81,6.98,0,8.04.21,12.94,2.62,10.49,5.15,16.09,14.32,16.15,26.44.02,6.09-.24,7.33-2.59,12.08-5.94,12.02-17.67,18.24-31.12,16.48M82.13,54.41c6.97-3.23,10.9-9.4,10.94-17.19.06-11.04-8.32-19.46-19.36-19.46s-19.16,8.11-19.16,19.04c0,14.55,14.38,23.73,27.57,17.61M108.04,36.8V8.56h9.58v46.94h22.35v9.55h-31.93v-28.25M147.15,41.98v-23.07h-16.76v-10.37l21.35.21,21.35.21.24,4.97.24,4.97h-16.84v46.15h-9.58v-23.07M177.67,37l.21-28.05h37.51l.24,4.97.24,4.97h-28.88l.23,6.56.23,6.56,10.48.22,10.49.22,1.2,4.75,1.21,4.75h-23.77v13.53h28.73v9.55h-38.34l.22-28.05M219.5,64.06c.34-.55,5.05-6.81,10.47-13.92,6.3-8.26,9.63-13.29,9.24-13.92-.34-.55-5.03-6.79-10.42-13.86-5.4-7.08-9.81-13.08-9.81-13.33s2.63-.46,5.85-.46h5.86l7.51,9.95c4.13,5.47,7.69,9.95,7.92,9.95s3.82-4.47,7.98-9.95l7.57-9.95h5.79c3.18,0,5.79.22,5.79.5s-4.71,6.69-10.46,14.27l-10.46,13.77,9.91,12.98c5.45,7.14,10.18,13.42,10.51,13.97.45.76-.82.99-5.4.99h-5.99l-7.3-9.55c-4.01-5.25-7.57-9.55-7.89-9.55s-3.9,4.3-7.94,9.55l-7.34,9.55h-6.01c-4.6,0-5.86-.23-5.39-.99Z"/>
    </g>
  </g>
  <g id="_9fb978af-a1db-4d98-b101-130946e4786c" data-name="9fb978af-a1db-4d98-b101-130946e4786c">
    <g id="_9fb978af-a1db-4d98-b101-130946e4786c-child-0" data-name="9fb978af-a1db-4d98-b101-130946e4786c-child-0">
      <path class="cls-1" d="M312.18,135.61V0h4.4v135.61h-4.4Z"/>
    </g>
  </g>
  <g id="_8b1c7513-48de-40d0-a3d2-24777e829db8" data-name="8b1c7513-48de-40d0-a3d2-24777e829db8">
    <g id="acb13985-5f64-42ee-9be1-304afb691ddb">
      <path class="cls-1" d="M365.23,42.23c-.17-.21-.45-.44-.82-.68s-.8-.46-1.29-.66c-.49-.2-1.03-.37-1.62-.52-.58-.14-1.18-.21-1.79-.21-1.35,0-2.35.25-3,.75-.65.49-.98,1.18-.98,2.07,0,.65.18,1.17.55,1.55.37.39.93.7,1.68.94.76.24,1.7.49,2.81.76,1.4.33,2.6.72,3.61,1.18,1.01.46,1.78,1.06,2.33,1.81s.82,1.75.82,3c0,1.01-.2,1.9-.59,2.65-.39.75-.93,1.35-1.62,1.82s-1.49.82-2.39,1.05c-.9.23-1.87.35-2.91.35s-2.02-.11-3.03-.33-1.97-.54-2.88-.95-1.76-.92-2.55-1.51l1.5-2.77c.23.25.58.53,1.06.83.48.29,1.03.57,1.66.84.62.27,1.3.5,2.04.68.74.18,1.49.27,2.26.27,1.29,0,2.27-.22,2.95-.67.68-.45,1.02-1.11,1.02-1.97,0-.67-.22-1.22-.67-1.63s-1.1-.76-1.93-1.05c-.84-.29-1.84-.57-3.01-.86-1.35-.35-2.47-.74-3.37-1.18-.9-.45-1.57-1-2.01-1.67-.45-.67-.67-1.55-.67-2.62,0-1.35.32-2.48.97-3.41.64-.93,1.53-1.64,2.66-2.11s2.39-.7,3.77-.7c.92,0,1.8.1,2.64.3.83.2,1.61.47,2.33.82s1.36.74,1.91,1.18l-1.44,2.65ZM382.05,57.99c-1.44,0-2.75-.29-3.94-.86s-2.22-1.36-3.09-2.35c-.87-.99-1.55-2.1-2.02-3.33-.47-1.24-.71-2.51-.71-3.82s.25-2.66.75-3.9,1.2-2.34,2.09-3.31c.89-.97,1.93-1.73,3.11-2.3s2.48-.85,3.9-.85,2.81.3,3.99.89,2.2,1.39,3.06,2.39c.87,1,1.53,2.11,1.99,3.34s.69,2.49.69,3.8-.24,2.63-.72,3.87c-.48,1.24-1.17,2.34-2.06,3.31-.89.97-1.93,1.73-3.11,2.29-1.18.55-2.49.83-3.93.83ZM375.61,47.63c0,.98.15,1.92.44,2.81.3.89.73,1.69,1.3,2.39.57.7,1.25,1.25,2.04,1.65.79.41,1.7.61,2.72.61s1.95-.21,2.76-.64c.81-.42,1.49-.99,2.05-1.71.55-.72.97-1.52,1.26-2.4.29-.89.44-1.79.44-2.71,0-.98-.16-1.91-.47-2.79s-.75-1.67-1.32-2.38c-.57-.7-1.26-1.25-2.06-1.65-.79-.4-1.68-.6-2.66-.6-1.05,0-1.98.21-2.78.63-.79.42-1.47.99-2.03,1.7-.55.71-.97,1.5-1.26,2.39-.29.88-.43,1.78-.43,2.7ZM398.09,57.85v-20.43h3.26v17.58h10.94v2.85h-14.19ZM425.67,57.99c-1.63,0-3.01-.28-4.13-.83-1.13-.56-2.03-1.32-2.71-2.27-.68-.96-1.18-2.06-1.5-3.29-.31-1.23-.47-2.5-.47-3.82v-10.37h3.25v10.37c0,.94.09,1.85.27,2.72.19.87.49,1.65.91,2.34s.99,1.24,1.7,1.64c.71.41,1.59.61,2.65.61s1.99-.2,2.7-.61c.71-.4,1.29-.96,1.72-1.67s.73-1.49.92-2.36c.18-.86.27-1.75.27-2.67v-10.37h3.25v10.37c0,1.4-.17,2.72-.5,3.95-.33,1.24-.85,2.33-1.55,3.27-.71.94-1.62,1.67-2.74,2.2-1.12.53-2.47.79-4.04.79h0ZM440.39,47.49c0-1.25.22-2.47.66-3.67s1.09-2.29,1.94-3.28c.85-.99,1.89-1.78,3.11-2.36,1.22-.59,2.61-.88,4.16-.88,1.86,0,3.46.42,4.79,1.25,1.33.83,2.33,1.9,2.98,3.21l-2.53,1.7c-.37-.83-.84-1.48-1.43-1.96-.58-.48-1.22-.82-1.91-1.01s-1.37-.28-2.02-.28c-1.05,0-1.98.21-2.79.64s-1.48,1.01-2.03,1.72c-.55.71-.95,1.5-1.22,2.38-.27.89-.4,1.77-.4,2.65,0,1,.16,1.95.47,2.85.32.91.77,1.71,1.35,2.41.59.7,1.28,1.25,2.08,1.65.79.41,1.67.61,2.63.61.67,0,1.36-.12,2.07-.35.71-.23,1.37-.6,1.98-1.09.6-.5,1.07-1.13,1.42-1.9l2.68,1.49c-.41,1.02-1.06,1.88-1.95,2.59s-1.89,1.25-3,1.62c-1.11.36-2.22.54-3.31.54-1.41,0-2.7-.3-3.89-.9-1.19-.61-2.22-1.41-3.09-2.42-.87-1.01-1.55-2.14-2.03-3.4-.48-1.25-.72-2.52-.72-3.81h0ZM464.24,57.85v-20.43h3.25v20.43h-3.25ZM483.41,57.99c-1.44,0-2.76-.29-3.95-.86s-2.22-1.36-3.09-2.35c-.87-.99-1.55-2.1-2.02-3.33-.47-1.24-.7-2.51-.7-3.82s.25-2.66.75-3.9c.49-1.24,1.19-2.34,2.08-3.31.89-.97,1.93-1.73,3.11-2.3s2.48-.85,3.9-.85,2.81.3,3.99.89,2.2,1.39,3.06,2.39c.87,1,1.53,2.11,1.99,3.34s.69,2.49.69,3.8-.24,2.63-.72,3.87c-.48,1.24-1.17,2.34-2.06,3.31-.89.97-1.92,1.73-3.11,2.29-1.18.55-2.49.83-3.92.83h0ZM476.97,47.63c0,.98.15,1.92.44,2.81.3.89.73,1.69,1.3,2.39.57.7,1.25,1.25,2.04,1.65.8.41,1.71.61,2.72.61s1.96-.21,2.77-.64c.81-.42,1.49-.99,2.04-1.71.56-.72.98-1.52,1.27-2.4.29-.89.43-1.79.43-2.71,0-.98-.15-1.91-.46-2.79s-.75-1.67-1.33-2.38c-.57-.7-1.26-1.25-2.05-1.65-.8-.4-1.69-.6-2.67-.6-1.05,0-1.98.21-2.77.63-.8.42-1.48.99-2.03,1.7-.56.71-.98,1.5-1.27,2.39-.29.88-.43,1.78-.43,2.7h0ZM502.71,43.41v14.44h-3.25v-20.43h2.65l11.57,14.76v-14.73h3.22v20.4h-2.79l-11.4-14.44ZM538.4,55v2.85h-14.02v-20.43h13.76v2.85h-10.51v5.85h9.13v2.64h-9.13v6.25h10.77ZM556.71,42.23c-.17-.21-.45-.44-.82-.68s-.8-.46-1.29-.66-1.03-.37-1.61-.52c-.59-.14-1.19-.21-1.8-.21-1.35,0-2.35.25-3,.75-.65.49-.98,1.18-.98,2.07,0,.65.18,1.17.55,1.55.37.39.93.7,1.68.94.76.24,1.7.49,2.81.76,1.4.33,2.6.72,3.61,1.18s1.79,1.06,2.34,1.81c.55.75.82,1.75.82,3,0,1.01-.2,1.9-.59,2.65s-.94,1.35-1.63,1.82-1.49.82-2.39,1.05-1.87.35-2.91.35-2.02-.11-3.03-.33-1.97-.54-2.88-.95c-.91-.41-1.76-.92-2.55-1.51l1.5-2.77c.23.25.58.53,1.06.83.48.29,1.03.57,1.66.84.62.27,1.3.5,2.04.68s1.49.27,2.26.27c1.29,0,2.27-.22,2.95-.67.68-.45,1.02-1.11,1.02-1.97,0-.67-.22-1.22-.67-1.63s-1.1-.76-1.93-1.05-1.84-.57-3.01-.86c-1.35-.35-2.47-.74-3.37-1.18-.9-.45-1.57-1-2.01-1.67s-.66-1.55-.66-2.62c0-1.35.32-2.48.96-3.41s1.53-1.64,2.66-2.11c1.13-.47,2.39-.7,3.77-.7.92,0,1.8.1,2.64.3.83.2,1.61.47,2.33.82.72.35,1.36.74,1.91,1.18l-1.44,2.65ZM575.06,57.85v-20.43h8.89c.92,0,1.77.19,2.54.58.77.38,1.43.89,2,1.52.56.63,1,1.35,1.32,2.15.31.79.47,1.59.47,2.4,0,.92-.16,1.79-.48,2.61-.33.81-.79,1.52-1.4,2.11-.61.6-1.31,1.03-2.12,1.3l4.81,7.77h-3.63l-4.43-7.11h-4.72v7.11h-3.25ZM578.31,47.89h5.61c.6,0,1.13-.18,1.59-.53s.82-.82,1.09-1.4c.27-.57.4-1.21.4-1.9s-.16-1.35-.47-1.93c-.32-.57-.72-1.03-1.2-1.36-.48-.34-1.01-.51-1.58-.51h-5.44v7.63ZM610.97,55v2.85h-14.02v-20.43h13.76v2.85h-10.51v5.85h9.13v2.64h-9.13v6.25h10.77ZM623.08,37.42h3.05l7.95,20.43h-3.4l-2.13-5.56h-7.91l-2.13,5.56h-3.4l7.97-20.43ZM627.89,49.91l-3.28-8.96-3.37,8.96h6.65ZM639.49,57.85v-20.43h3.25v17.58h10.94v2.85h-14.18ZM673.19,55v2.85h-14.02v-20.43h13.76v2.85h-10.51v5.85h9.13v2.64h-9.13v6.25h10.77ZM691.49,42.23c-.17-.21-.45-.44-.82-.68s-.8-.46-1.29-.66-1.03-.37-1.62-.52c-.58-.14-1.18-.21-1.79-.21-1.35,0-2.35.25-3,.75-.65.49-.98,1.18-.98,2.07,0,.65.18,1.17.55,1.55.37.39.93.7,1.68.94.76.24,1.7.49,2.81.76,1.4.33,2.6.72,3.61,1.18s1.78,1.06,2.33,1.81.83,1.75.83,3c0,1.01-.2,1.9-.59,2.65-.4.75-.94,1.35-1.63,1.82s-1.49.82-2.39,1.05-1.87.35-2.91.35-2.02-.11-3.03-.33-1.97-.54-2.88-.95c-.91-.41-1.76-.92-2.55-1.51l1.5-2.77c.23.25.58.53,1.06.83.48.29,1.03.57,1.66.84.62.27,1.3.5,2.04.68s1.49.27,2.26.27c1.29,0,2.27-.22,2.95-.67.68-.45,1.02-1.11,1.02-1.97,0-.67-.22-1.22-.67-1.63s-1.1-.76-1.93-1.05-1.84-.57-3.01-.86c-1.35-.35-2.47-.74-3.37-1.18-.9-.45-1.57-1-2.01-1.67-.45-.67-.67-1.55-.67-2.62,0-1.35.32-2.48.97-3.41.64-.93,1.53-1.64,2.66-2.11,1.13-.47,2.39-.7,3.77-.7.92,0,1.8.1,2.64.3.83.2,1.61.47,2.33.82.72.35,1.36.74,1.91,1.18l-1.44,2.65ZM353.14,98.14v-20.43h8.58c.92,0,1.77.19,2.54.58.77.39,1.45.89,2.02,1.52.57.63,1,1.35,1.31,2.15.31.79.46,1.59.46,2.4,0,1.14-.25,2.22-.76,3.23s-1.22,1.84-2.15,2.48c-.92.65-2,.97-3.25.97h-5.49v7.11h-3.26ZM356.4,88.18h5.29c.59,0,1.12-.17,1.58-.51.47-.33.83-.79,1.1-1.38.27-.58.4-1.23.4-1.96s-.15-1.41-.46-1.98-.7-1.01-1.19-1.32c-.49-.32-1.02-.48-1.57-.48h-5.15v7.63ZM378.55,77.7h3.05l7.94,20.43h-3.39l-2.13-5.56h-7.92l-2.13,5.56h-3.39l7.97-20.43ZM383.36,90.19l-3.29-8.95-3.36,8.95h6.65ZM394.95,98.14v-20.43h8.9c.92,0,1.76.19,2.53.58.77.38,1.43.89,2,1.52s1.01,1.35,1.32,2.15c.32.79.48,1.59.48,2.4,0,.92-.16,1.79-.49,2.61-.33.81-.79,1.52-1.4,2.11-.6.59-1.3,1.03-2.11,1.3l4.8,7.77h-3.62l-4.44-7.11h-4.72v7.11h-3.25ZM398.19,88.18h5.62c.59,0,1.12-.18,1.58-.53.46-.36.82-.83,1.09-1.4s.41-1.21.41-1.9-.16-1.35-.48-1.93c-.31-.57-.71-1.03-1.19-1.37-.48-.33-1.01-.5-1.59-.5h-5.44v7.63ZM422.74,77.7h3.05l7.95,20.43h-3.4l-2.13-5.56h-7.91l-2.13,5.56h-3.4l7.97-20.43ZM427.54,90.19l-3.28-8.95-3.37,8.95h6.65ZM448.23,98.14v-20.43h3.25v17.58h10.94v2.85h-14.18ZM473.82,77.7h3.05l7.94,20.43h-3.4l-2.13-5.56h-7.91l-2.13,5.56h-3.4l7.98-20.43ZM478.62,90.19l-3.28-8.95-3.37,8.95h6.65ZM499.3,98.14v-20.43h3.26v20.43h-3.26ZM513.26,83.69v14.44h-3.25v-20.43h2.65l11.57,14.76v-14.73h3.22v20.4h-2.79l-11.4-14.44ZM534.95,98.14v-20.43h7.26c2.21,0,4.04.46,5.51,1.37,1.47.91,2.57,2.14,3.32,3.68.75,1.55,1.12,3.26,1.12,5.14,0,2.07-.41,3.88-1.22,5.41s-1.97,2.72-3.47,3.57c-1.49.85-3.25,1.27-5.26,1.27h-7.26ZM548.87,87.89c0-1.44-.26-2.71-.79-3.8-.53-1.09-1.28-1.96-2.27-2.59s-2.19-.95-3.61-.95h-4.01v14.73h4.01c1.43,0,2.65-.33,3.64-.98s1.74-1.54,2.26-2.65c.51-1.11.77-2.37.77-3.77h0ZM566.94,98.28c-1.63,0-3.01-.28-4.13-.83-1.13-.56-2.03-1.32-2.71-2.28s-1.18-2.05-1.49-3.28c-.32-1.23-.48-2.5-.48-3.83v-10.36h3.25v10.36c0,.94.09,1.85.28,2.72.18.87.48,1.66.9,2.35.43.69.99,1.24,1.7,1.64s1.6.6,2.65.6,2-.2,2.71-.6,1.28-.96,1.71-1.67.74-1.49.92-2.36.27-1.76.27-2.68v-10.36h3.26v10.36c0,1.4-.17,2.72-.51,3.96-.33,1.24-.85,2.33-1.55,3.27-.7.94-1.61,1.67-2.74,2.2-1.12.53-2.47.79-4.04.79h0ZM595.03,82.51c-.17-.21-.44-.44-.82-.68-.37-.24-.8-.46-1.29-.66-.49-.2-1.03-.37-1.61-.52-.59-.14-1.19-.21-1.8-.21-1.35,0-2.35.25-3,.74-.65.5-.97,1.19-.97,2.08,0,.65.18,1.16.54,1.55.37.39.93.7,1.69.94.75.24,1.69.49,2.8.76,1.4.33,2.61.72,3.62,1.18s1.78,1.06,2.33,1.81.82,1.75.82,3c0,1.01-.2,1.89-.59,2.64s-.94,1.36-1.63,1.83-1.49.82-2.39,1.05-1.87.35-2.91.35-2.02-.11-3.03-.33-1.97-.54-2.88-.95c-.91-.41-1.76-.92-2.55-1.51l1.5-2.77c.23.25.58.53,1.06.82.48.3,1.03.58,1.66.85.62.27,1.3.5,2.04.68s1.49.27,2.26.27c1.29,0,2.27-.22,2.95-.67s1.02-1.11,1.02-1.98c0-.67-.22-1.21-.67-1.62s-1.1-.76-1.93-1.05-1.84-.58-3.01-.87c-1.34-.34-2.46-.73-3.37-1.18-.9-.44-1.57-1-2.01-1.67s-.66-1.54-.66-2.62c0-1.34.32-2.48.96-3.41.65-.93,1.53-1.63,2.66-2.1,1.13-.47,2.39-.7,3.77-.7.93,0,1.81.1,2.64.3.83.2,1.61.47,2.33.82.72.35,1.36.74,1.91,1.18l-1.44,2.65ZM618.4,80.55h-6.79v17.58h-3.26v-17.58h-6.82v-2.85h16.86v2.85ZM624.01,98.14v-20.43h8.89c.92,0,1.76.19,2.53.58.77.38,1.44.89,2,1.52.57.63,1.01,1.35,1.33,2.15.31.79.47,1.59.47,2.4,0,.92-.16,1.79-.49,2.61-.33.81-.79,1.52-1.39,2.11-.61.59-1.31,1.03-2.12,1.3l4.81,7.77h-3.63l-4.43-7.11h-4.72v7.11h-3.25ZM627.26,88.18h5.61c.59,0,1.12-.18,1.59-.53.46-.36.82-.83,1.09-1.4s.4-1.21.4-1.9-.16-1.35-.47-1.93c-.32-.57-.72-1.03-1.2-1.37-.48-.33-1.01-.5-1.58-.5h-5.44v7.63ZM645.91,98.14v-20.43h3.25v20.43h-3.25ZM662.51,77.7h3.06l7.94,20.43h-3.4l-2.13-5.56h-7.91l-2.13,5.56h-3.4l7.97-20.43ZM667.32,90.19l-3.28-8.95-3.37,8.95h6.65ZM702.19,80.55h-6.79v17.58h-3.25v-17.58h-6.83v-2.85h16.86v2.85ZM721.82,95.29v2.85h-14.02v-20.43h13.76v2.85h-10.51v5.84h9.13v2.65h-9.13v6.25h10.77ZM729.34,77.7l5.64,8.03,5.64-8.03h3.6l-7.4,10.36,7.17,10.08h-3.6l-5.41-7.75-5.41,7.75h-3.6l7.11-10.08-7.34-10.36h3.6ZM764.36,80.55h-6.8v17.58h-3.25v-17.58h-6.82v-2.85h16.86v2.85ZM769.97,98.14v-20.43h3.26v20.43h-3.26ZM780.69,98.14v-20.43h3.25v17.58h10.94v2.85h-14.18Z"/>
    </g>
  </g>
</svg>